<!-- icon666.com - MILLIONS OF FREE VECTOR ICONS --><svg id="Layer_2" viewBox="0 0 32 32" xmlns="http://www.w3.org/2000/svg" xmlns:xlink="http://www.w3.org/1999/xlink" data-name="Layer 2"><linearGradient id="Orange_Yellow" gradientUnits="userSpaceOnUse" x1="4.065" x2="24.869" y1="35.307" y2="12.026"><stop offset="0" stop-color="#fff33b"></stop><stop offset=".04" stop-color="#fee72e"></stop><stop offset=".117" stop-color="#fed51b"></stop><stop offset=".196" stop-color="#fdca10"></stop><stop offset=".281" stop-color="#fdc70c"></stop><stop offset=".669" stop-color="#f3903f"></stop><stop offset=".888" stop-color="#ed683c"></stop><stop offset="1" stop-color="#e93e3a"></stop></linearGradient><linearGradient id="Orange_Yellow-2" x1="-.508" x2="20.296" xlink:href="#Orange_Yellow" y1="31.22" y2="7.939"></linearGradient><path d="m26.62 15.864-10-7.9a1 1 0 0 0 -1.24 0l-10 7.9a1 1 0 0 0 -.38.784v10.605a1 1 0 0 0 1.648.762l9.352-7.955 9.352 7.955a1 1 0 0 0 1.648-.762v-10.6a1 1 0 0 0 -.38-.789zm-1.62 9.226-8.352-7.1a1 1 0 0 0 -1.3 0l-8.348 7.1v-7.957l9-7.112 9 7.112z" fill="url(#Orange_Yellow)" style="fill: rgb(104, 100, 100);"></path><path d="m6.625 13.528 9.375-7.501 9.375 7.5a1 1 0 1 0 1.25-1.562l-10-8a1 1 0 0 0 -1.25 0l-10 8a1 1 0 1 0 1.25 1.562z" fill="url(#Orange_Yellow-2)" style="fill: rgb(114, 105, 105);"></path></svg>